HIERARCHY
ROOT hip
{
  OFFSET 0 0 0
  CHANNELS 6 Xposition Yposition Zposition Zrotation Yrotation Xrotation
  JOINT abdomen
  {
    OFFSET 0 20.6881 -0.73152
    CHANNELS 3 Zrotation Xrotation Yrotation
    JOINT chest
    {
      OFFSET 0 11.7043 -0.48768
      CHANNELS 3 Zrotation Xrotation Yrotation
      JOINT neck
      {
        OFFSET 0 22.1894 -2.19456
        CHANNELS 3 Zrotation Xrotation Yrotation
        JOINT head
        {
          OFFSET -0.24384 7.07133 1.2192
          CHANNELS 3 Zrotation Xrotation Yrotation
          JOINT leftEye
          {
            OFFSET 4.14528 8.04674 8.04672
            CHANNELS 3 Zrotation Xrotation Yrotation
            End Site
            {
              OFFSET 1 0 0
            }
          }
          JOINT rightEye
          {
            OFFSET -3.6576 8.04674 8.04672
            CHANNELS 3 Zrotation Xrotation Yrotation
            End Site
            {
              OFFSET 1 0 0
            }
          }
        }
      }
      JOINT rCollar
      {
        OFFSET -2.68224 19.2634 -4.8768
        CHANNELS 3 Zrotation Xrotation Yrotation
        JOINT rShldr
        {
          OFFSET -8.77824 -1.95073 1.46304
          CHANNELS 3 Zrotation Xrotation Yrotation
          JOINT rForeArm
          {
            OFFSET -28.1742 -1.7115 0.48768
            CHANNELS 3 Zrotation Xrotation Yrotation
            JOINT rHand
            {
              OFFSET -22.5879 0.773209 7.07136
              CHANNELS 3 Zrotation Xrotation Yrotation
              JOINT rThumb1
              {
                OFFSET -1.2192 -0.487915 3.41376
                CHANNELS 3 Zrotation Xrotation Yrotation
                JOINT rThumb2
                {
                  OFFSET -3.37035 -0.52449 3.41376
                  CHANNELS 3 Zrotation Xrotation Yrotation
                  End Site
                  {
                    OFFSET -1.78271 -1.18214 1.43049
                  }
                }
              }
              JOINT rIndex1
              {
                OFFSET -7.75947 0.938293 5.60832
                CHANNELS 3 Zrotation Xrotation Yrotation
                JOINT rIndex2
                {
                  OFFSET -2.54057 -0.884171 1.56538
                  CHANNELS 3 Zrotation Xrotation Yrotation
                  End Site
                  {
                    OFFSET -1.62519 -0.234802 1.16502
                  }
                }
              }
              JOINT rMid1
              {
                OFFSET -8.24714 1.18213 3.41376
                CHANNELS 3 Zrotation Xrotation Yrotation
                JOINT rMid2
                {
                  OFFSET -3.10165 -0.590103 1.0647
                  CHANNELS 3 Zrotation Xrotation Yrotation
                  End Site
                  {
                    OFFSET -2.48547 -0.328903 0.83742
                  }
                }
              }
              JOINT rRing1
              {
                OFFSET -8.82822 0.546677 1.51678
                CHANNELS 3 Zrotation Xrotation Yrotation
                JOINT rRing2
                {
                  OFFSET -2.60934 -0.819778 -0.0198488
                  CHANNELS 3 Zrotation Xrotation Yrotation
                  End Site
                  {
                    OFFSET -2.33842 -0.294052 0.168128
                  }
                }
              }
              JOINT rPinky1
              {
                OFFSET -8.27202 -0.0477905 -0.4584
                CHANNELS 3 Zrotation Xrotation Yrotation
                JOINT rPinky2
                {
                  OFFSET -1.82734 -0.647385 -0.700984
                  CHANNELS 3 Zrotation Xrotation Yrotation
                  End Site
                  {
                    OFFSET -1.69225 -0.51767 -0.607171
                  }
                }
              }
            }
          }
        }
      }
      JOINT lCollar
      {
        OFFSET 2.68224 19.2634 -4.8768
        CHANNELS 3 Zrotation Xrotation Yrotation
        JOINT lShldr
        {
          OFFSET 8.77824 -1.95073 1.46304
          CHANNELS 3 Zrotation Xrotation Yrotation
          JOINT lForeArm
          {
            OFFSET 28.1742 -1.7115 0.48768
            CHANNELS 3 Zrotation Xrotation Yrotation
            JOINT lHand
            {
              OFFSET 22.5879 0.773209 7.07136
              CHANNELS 3 Zrotation Xrotation Yrotation
              JOINT lThumb1
              {
                OFFSET 1.2192 -0.487915 3.41376
                CHANNELS 3 Zrotation Xrotation Yrotation
                JOINT lThumb2
                {
                  OFFSET 3.37035 -0.52449 3.41376
                  CHANNELS 3 Zrotation Xrotation Yrotation
                  End Site
                  {
                    OFFSET 1.78271 -1.18214 1.43049
                  }
                }
              }
              JOINT lIndex1
              {
                OFFSET 7.75947 0.938293 5.60832
                CHANNELS 3 Zrotation Xrotation Yrotation
                JOINT lIndex2
                {
                  OFFSET 2.54057 -0.884171 1.56538
                  CHANNELS 3 Zrotation Xrotation Yrotation
                  End Site
                  {
                    OFFSET 1.62519 -0.234802 1.16502
                  }
                }
              }
              JOINT lMid1
              {
                OFFSET 8.24714 1.18213 3.41376
                CHANNELS 3 Zrotation Xrotation Yrotation
                JOINT lMid2
                {
                  OFFSET 3.10165 -0.590103 1.0647
                  CHANNELS 3 Zrotation Xrotation Yrotation
                  End Site
                  {
                    OFFSET 2.48547 -0.328903 0.83742
                  }
                }
              }
              JOINT lRing1
              {
                OFFSET 8.82822 0.546677 1.51678
                CHANNELS 3 Zrotation Xrotation Yrotation
                JOINT lRing2
                {
                  OFFSET 2.60934 -0.819778 -0.0198488
                  CHANNELS 3 Zrotation Xrotation Yrotation
                  End Site
                  {
                    OFFSET 2.33842 -0.294052 0.168128
                  }
                }
              }
              JOINT lPinky1
              {
                OFFSET 8.27202 -0.0477905 -0.4584
                CHANNELS 3 Zrotation Xrotation Yrotation
                JOINT lPinky2
                {
                  OFFSET 1.82734 -0.647385 -0.700984
                  CHANNELS 3 Zrotation Xrotation Yrotation
                  End Site
                  {
                    OFFSET 1.69225 -0.51767 -0.607171
                  }
                }
              }
            }
          }
        }
      }
    }
  }
  JOINT rButtock
  {
    OFFSET -8.77824 4.35084 1.2192
    CHANNELS 3 Zrotation Xrotation Yrotation
    JOINT rThigh
    {
      OFFSET 0 -1.70687 -2.19456
      CHANNELS 3 Zrotation Xrotation Yrotation
      JOINT rShin
      {
        OFFSET 0 -36.8199 0.73152
        CHANNELS 3 Zrotation Xrotation Yrotation
        JOINT rFoot
        {
          OFFSET 0.73152 -45.1104 -5.12064
          CHANNELS 3 Zrotation Xrotation Yrotation
          End Site
          {
            OFFSET -1.1221 -3.69964 12.103
          }
        }
      }
    }
  }
  JOINT lButtock
  {
    OFFSET 8.77824 4.35084 1.2192
    CHANNELS 3 Zrotation Xrotation Yrotation
    JOINT lThigh
    {
      OFFSET 0 -1.70687 -2.19456
      CHANNELS 3 Zrotation Xrotation Yrotation
      JOINT lShin
      {
        OFFSET 0 -36.8199 0.73152
        CHANNELS 3 Zrotation Xrotation Yrotation
        JOINT lFoot
        {
          OFFSET -0.73152 -45.1104 -5.12064
          CHANNELS 3 Zrotation Xrotation Yrotation
          End Site
          {
            OFFSET 1.1221 -3.69964 12.103
          }
        }
      }
    }
  }
}
MOTION
Frames:	5
Frame Time:	0.00833333
102.189 65.4052 237.404 0.0 0.0 0.0 1.57503 -0.00270805 0.0428959 0.434163 0.00151584 0.0751868 -1.25541e-14 -7.95139e-16 -3.72721e-16 -3.75144e-14 3.18055e-15 -1.07002e-15 -0.0 0.0 0.0 -0.0 0.0 0.0 -6.21383e-15 -4.85314e-17 0.0 -1.28468e-13 -8.32411e-16 -3.57812e-15 -2.25392e-12 6.35117e-13 -5.725e-14 -2.56877e-11 -8.68639e-13 -8.36486e-13 -6.06166e-11 -5.12803e-13 -1.93378e-12 -1.04693e-10 -8.87375e-13 -3.33322e-12 -6.06134e-11 -5.14455e-13 -1.94014e-12 7.73091 5.47488 0.417314 -6.06175e-11 -5.13163e-13 -1.9306e-12 2.90554 0.965183 0.102902 -6.06159e-11 -5.12864e-13 -1.92901e-12 10.2786 0.731801 0.0259123 -6.0623e-11 -5.11672e-13 -1.91469e-12 2.22167 -0.733487 -0.20892 -6.21063e-15 -4.73667e-17 -2.98177e-16 -1.31615e-13 -5.46658e-16 -5.36719e-15 -2.2324e-12 -7.09264e-13 -5.08889e-14 -2.56973e-11 5.0126e-13 -8.23764e-13 -6.05875e-11 -4.59256e-13 -1.92106e-12 -1.04623e-10 -8.015e-13 -3.32209e-12 -6.05916e-11 -4.5959e-13 -1.92106e-12 -7.73091 5.47488 -0.417314 -6.05863e-11 -4.59789e-13 -1.92742e-12 -2.90554 0.965183 -0.102902 -6.05888e-11 -4.5959e-13 -1.92821e-12 -10.2786 0.731801 -0.0259123 -6.0581e-11 -4.57205e-13 -1.93378e-12 -2.22167 -0.733487 0.20892 -2.03217e-16 0.0 -3.88251e-19 1.70465 -6.60402 -0.159324 0.00258821 6.39967 0.0733743 -0.52782 0.199742 0.0640663 2.03217e-16 0.0 3.88251e-19 0.69205 -1.9236 0.00558118 0.00917727 -2.07857 0.0757437 0.502934 3.99746 -0.138951
103.701 63.267 236.782 179.295 -19.1085 -151.821 2.44065 4.72595 -0.0947605 1.06512 -3.02372 0.131427 -0.336578 -0.669807 0.00879045 -2.58938 -6.40089 -0.62658 -0.0 0.0 0.0 -0.0 0.0 0.0 5.11813e-14 -3.34309e-14 9.76712e-14 17.7222 9.90635 -0.488488 -11.3831 -8.28825 13.1242 -3.27276e-05 -0.0108681 -0.00152768 -6.49855e-10 -4.46745e-10 5.06542e-10 -1.12423e-09 -7.71446e-10 8.75496e-10 -6.49852e-10 -4.46746e-10 5.06536e-10 7.73091 5.47488 0.417314 -6.49856e-10 -4.46745e-10 5.06544e-10 2.90554 0.965183 0.102902 -6.49853e-10 -4.46745e-10 5.06545e-10 10.2786 0.731801 0.0259123 -6.49862e-10 -4.46743e-10 5.06556e-10 2.22167 -0.733487 -0.20892 5.11644e-14 -3.34306e-14 9.73695e-14 -22.4853 11.6751 0.490604 12.9406 -9.95687 -13.8723 -0.00580091 -1.7359 0.243604 5.06931e-12 -1.34637e-10 -1.59511e-09 1.80133e-11 -2.26556e-10 -2.75631e-09 5.06153e-12 -1.34638e-10 -1.59511e-09 -7.73091 5.47488 -0.417314 5.0663e-12 -1.34639e-10 -1.59512e-09 -2.90554 0.965183 -0.102902 5.06229e-12 -1.34639e-10 -1.59512e-09 -10.2786 0.731801 -0.0259123 5.07466e-12 -1.34634e-10 -1.59512e-09 -2.22167 -0.733487 0.20892 -2.03217e-16 0.0 -3.88251e-19 0.462073 -21.16 -2.74293 0.0406656 23.5969 0.334103 -1.31132 -4.43596 -4.06647 2.03217e-16 0.0 3.88251e-19 1.04997 -8.36597 0.0767163 -0.0916641 17.2291 -0.204249 0.526876 5.83224 -1.17994
103.405 63.1478 235.462 179.872 -18.4295 -151.744 3.3456 9.69319 -0.28384 1.76207 -6.22175 0.181225 -0.677394 -1.38682 0.0312154 -5.47175 -13.1701 -1.29062 -0.0 0.0 0.0 -0.0 0.0 0.0 1.13992e-13 -6.84026e-14 1.99471e-13 36.6879 20.3483 -1.20891 -19.2849 -15.5484 27.7943 -8.99858e-05 -0.00767437 -0.00107927 -1.27567e-09 -9.71614e-10 1.07661e-09 -2.20711e-09 -1.67793e-09 1.86083e-09 -1.27567e-09 -9.71615e-10 1.0766e-09 7.73091 5.47488 0.417314 -1.27568e-09 -9.71613e-10 1.07661e-09 2.90554 0.965183 0.102902 -1.27567e-09 -9.71614e-10 1.07661e-09 10.2786 0.731801 0.0259123 -1.27568e-09 -9.71612e-10 1.07662e-09 2.22167 -0.733487 -0.20892 1.13953e-13 -6.84035e-14 1.99164e-13 -46.4835 24.1754 1.01801 21.4295 -18.6091 -29.8621 0.00427359 -3.52485 0.495437 9.62829e-11 -2.64785e-10 -3.34874e-09 1.85729e-10 -4.44584e-10 -5.78649e-09 9.62709e-11 -2.64788e-10 -3.34873e-09 -7.73091 5.47488 -0.417314 9.62753e-11 -2.64789e-10 -3.34874e-09 -2.90554 0.965183 -0.102902 9.62696e-11 -2.64789e-10 -3.34875e-09 -10.2786 0.731801 -0.0259123 9.6287e-11 -2.64781e-10 -3.34875e-09 -2.22167 -0.733487 0.20892 -2.03217e-16 0.0 -3.88251e-19 -2.63612 -36.5398 -6.33828 -0.148015 41.7987 0.740942 -2.86473 -9.2058 -8.5089 2.03217e-16 0.0 3.88251e-19 1.39534 -14.999 0.0755995 0.0491278 37.423 -0.604641 0.632535 7.84698 -2.31633
103.082 63.163 233.913 180.299 -18.4047 -152.17 4.24176 14.183 -0.380712 2.3451 -9.07413 0.246444 -1.00912 -2.00942 0.0263858 -8.20908 -19.1932 -1.97801 -0.0 0.0 0.0 -0.0 0.0 0.0 1.65971e-13 -1.00196e-13 2.93014e-13 53.7383 29.7097 -1.66216 -23.216 -19.576 41.8564 -9.99213e-05 -0.0326043 -0.00458303 -1.82833e-09 -1.33921e-09 1.52349e-09 -3.1633e-09 -2.31256e-09 2.63316e-09 -1.82833e-09 -1.33921e-09 1.52349e-09 7.73091 5.47488 0.417314 -1.82833e-09 -1.33921e-09 1.52349e-09 2.90554 0.965183 0.102902 -1.82833e-09 -1.33921e-09 1.52349e-09 10.2786 0.731801 0.0259123 -1.82834e-09 -1.33921e-09 1.5235e-09 2.22167 -0.733487 -0.20892 1.65914e-13 -1.00197e-13 2.92705e-13 -68.1682 35.0139 1.75997 24.8449 -22.7058 -45.3048 0.0270353 -5.20731 0.733505 1.36383e-10 -4.02992e-10 -4.7815e-09 2.63285e-10 -6.78066e-10 -8.26229e-09 1.36368e-10 -4.02996e-10 -4.78148e-09 -7.73091 5.47488 -0.417314 1.36372e-10 -4.02998e-10 -4.7815e-09 -2.90554 0.965183 -0.102902 1.36365e-10 -4.02997e-10 -4.7815e-09 -10.2786 0.731801 -0.0259123 1.36386e-10 -4.02987e-10 -4.7815e-09 -2.22167 -0.733487 0.20892 -2.03217e-16 0.0 -3.88251e-19 -7.86729 -49.7726 -11.4363 -0.734236 57.984 1.45754 -4.91344 -13.4199 -12.6416 2.03217e-16 0.0 3.88251e-19 1.8169 -21.2506 0.232342 0.616251 55.8377 -1.3119 0.777296 9.49009 -3.28934
102.763 63.0386 232.319 180.753 -18.3536 -152.705 5.03219 17.4798 -0.228922 2.63588 -11.0624 0.348769 -1.31995 -2.396 -0.0466408 -10.2936 -23.3581 -2.6392 -0.0 0.0 0.0 -0.0 0.0 0.0 1.90872e-13 -1.24042e-13 3.65913e-13 65.2676 36.3874 -1.11614 -24.7399 -20.5488 52.0432 -2.00469e-05 -0.127844 -0.0179673 -2.19808e-09 -1.31362e-09 1.66243e-09 -3.80278e-09 -2.26759e-09 2.87295e-09 -2.19808e-09 -1.31362e-09 1.66243e-09 7.73091 5.47488 0.417314 -2.19809e-09 -1.31362e-09 1.66243e-09 2.90554 0.965183 0.102902 -2.19808e-09 -1.31362e-09 1.66243e-09 10.2786 0.731801 0.0259123 -2.19809e-09 -1.31362e-09 1.66243e-09 2.22167 -0.733487 -0.20892 1.90807e-13 -1.24042e-13 3.65615e-13 -83.6635 41.7014 2.83317 25.7348 -22.7725 -55.6932 0.0541152 -6.62381 0.935127 4.86991e-11 -5.61347e-10 -5.41206e-09 1.15442e-10 -9.50184e-10 -9.35214e-09 4.86828e-11 -5.61352e-10 -5.41204e-09 -7.73091 5.47488 -0.417314 4.86862e-11 -5.61355e-10 -5.41206e-09 -2.90554 0.965183 -0.102902 4.86785e-11 -5.61354e-10 -5.41206e-09 -10.2786 0.731801 -0.0259123 4.87016e-11 -5.61342e-10 -5.41206e-09 -2.22167 -0.733487 0.20892 -2.03217e-16 0.0 -3.88251e-19 -13.8182 -58.0719 -17.1446 -1.81742 69.1325 2.60672 -6.8022 -16.5082 -15.7175 2.03217e-16 0.0 3.88251e-19 2.50222 -26.5471 0.811631 1.92392 69.8069 -2.67039 0.855067 10.216 -3.82678
